HIERARCHY
ROOT hip
{
  OFFSET -19.2285 84.2826 -44.7531
  CHANNELS 6 Xposition Yposition Zposition Zrotation Xrotation Yrotation
  JOINT abdomen
  {
    OFFSET 0 20.6881 -0.73152
    CHANNELS 3 Zrotation Xrotation Yrotation
    JOINT chest
    {
      OFFSET 0 11.7043 -0.48768
      CHANNELS 3 Zrotation Xrotation Yrotation
      JOINT neck
      {
        OFFSET 0 22.1894 -2.19456
        CHANNELS 3 Zrotation Xrotation Yrotation
        JOINT head
        {
          OFFSET -0.24384 7.07133 1.2192
          CHANNELS 3 Zrotation Xrotation Yrotation
          JOINT leftEye
          {
            OFFSET 4.14528 8.04674 8.04672
            CHANNELS 3 Zrotation Xrotation Yrotation
            End Site
            {
              OFFSET 1 0 0
            }
          }
          JOINT rightEye
          {
            OFFSET -3.6576 8.04674 8.04672
            CHANNELS 3 Zrotation Xrotation Yrotation
            End Site
            {
              OFFSET 1 0 0
            }
          }
        }
      }
      JOINT rCollar
      {
        OFFSET -2.68224 19.2634 -4.8768
        CHANNELS 3 Zrotation Xrotation Yrotation
        JOINT rShldr
        {
          OFFSET -8.77824 -1.95073 1.46304
          CHANNELS 3 Zrotation Xrotation Yrotation
          JOINT rForeArm
          {
            OFFSET -28.1742 -1.7115 0.48768
            CHANNELS 3 Zrotation Xrotation Yrotation
            JOINT rHand
            {
              OFFSET -22.5879 0.773209 7.07136
              CHANNELS 3 Zrotation Xrotation Yrotation
              JOINT rThumb1
              {
                OFFSET -1.2192 -0.487915 3.41376
                CHANNELS 3 Zrotation Xrotation Yrotation
                JOINT rThumb2
                {
                  OFFSET -3.37035 -0.52449 3.41376
                  CHANNELS 3 Zrotation Xrotation Yrotation
                  End Site
                  {
                    OFFSET -1.78271 -1.18214 1.43049
                  }
                }
              }
              JOINT rIndex1
              {
                OFFSET -7.75947 0.938293 5.60832
                CHANNELS 3 Zrotation Xrotation Yrotation
                JOINT rIndex2
                {
                  OFFSET -2.54057 -0.884171 1.56538
                  CHANNELS 3 Zrotation Xrotation Yrotation
                  End Site
                  {
                    OFFSET -1.62519 -0.234802 1.16502
                  }
                }
              }
              JOINT rMid1
              {
                OFFSET -8.24714 1.18213 3.41376
                CHANNELS 3 Zrotation Xrotation Yrotation
                JOINT rMid2
                {
                  OFFSET -3.10165 -0.590103 1.0647
                  CHANNELS 3 Zrotation Xrotation Yrotation
                  End Site
                  {
                    OFFSET -2.48547 -0.328903 0.83742
                  }
                }
              }
              JOINT rRing1
              {
                OFFSET -8.82822 0.546677 1.51678
                CHANNELS 3 Zrotation Xrotation Yrotation
                JOINT rRing2
                {
                  OFFSET -2.60934 -0.819778 -0.0198488
                  CHANNELS 3 Zrotation Xrotation Yrotation
                  End Site
                  {
                    OFFSET -2.33842 -0.294052 0.168128
                  }
                }
              }
              JOINT rPinky1
              {
                OFFSET -8.27202 -0.0477905 -0.4584
                CHANNELS 3 Zrotation Xrotation Yrotation
                JOINT rPinky2
                {
                  OFFSET -1.82734 -0.647385 -0.700984
                  CHANNELS 3 Zrotation Xrotation Yrotation
                  End Site
                  {
                    OFFSET -1.69225 -0.51767 -0.607171
                  }
                }
              }
            }
          }
        }
      }
      JOINT lCollar
      {
        OFFSET 2.68224 19.2634 -4.8768
        CHANNELS 3 Zrotation Xrotation Yrotation
        JOINT lShldr
        {
          OFFSET 8.77824 -1.95073 1.46304
          CHANNELS 3 Zrotation Xrotation Yrotation
          JOINT lForeArm
          {
            OFFSET 28.1742 -1.7115 0.48768
            CHANNELS 3 Zrotation Xrotation Yrotation
            JOINT lHand
            {
              OFFSET 22.5879 0.773209 7.07136
              CHANNELS 3 Zrotation Xrotation Yrotation
              JOINT lThumb1
              {
                OFFSET 1.2192 -0.487915 3.41376
                CHANNELS 3 Zrotation Xrotation Yrotation
                JOINT lThumb2
                {
                  OFFSET 3.37035 -0.52449 3.41376
                  CHANNELS 3 Zrotation Xrotation Yrotation
                  End Site
                  {
                    OFFSET 1.78271 -1.18214 1.43049
                  }
                }
              }
              JOINT lIndex1
              {
                OFFSET 7.75947 0.938293 5.60832
                CHANNELS 3 Zrotation Xrotation Yrotation
                JOINT lIndex2
                {
                  OFFSET 2.54057 -0.884171 1.56538
                  CHANNELS 3 Zrotation Xrotation Yrotation
                  End Site
                  {
                    OFFSET 1.62519 -0.234802 1.16502
                  }
                }
              }
              JOINT lMid1
              {
                OFFSET 8.24714 1.18213 3.41376
                CHANNELS 3 Zrotation Xrotation Yrotation
                JOINT lMid2
                {
                  OFFSET 3.10165 -0.590103 1.0647
                  CHANNELS 3 Zrotation Xrotation Yrotation
                  End Site
                  {
                    OFFSET 2.48547 -0.328903 0.83742
                  }
                }
              }
              JOINT lRing1
              {
                OFFSET 8.82822 0.546677 1.51678
                CHANNELS 3 Zrotation Xrotation Yrotation
                JOINT lRing2
                {
                  OFFSET 2.60934 -0.819778 -0.0198488
                  CHANNELS 3 Zrotation Xrotation Yrotation
                  End Site
                  {
                    OFFSET 2.33842 -0.294052 0.168128
                  }
                }
              }
              JOINT lPinky1
              {
                OFFSET 8.27202 -0.0477905 -0.4584
                CHANNELS 3 Zrotation Xrotation Yrotation
                JOINT lPinky2
                {
                  OFFSET 1.82734 -0.647385 -0.700984
                  CHANNELS 3 Zrotation Xrotation Yrotation
                  End Site
                  {
                    OFFSET 1.69225 -0.51767 -0.607171
                  }
                }
              }
            }
          }
        }
      }
    }
  }
  JOINT rButtock
  {
    OFFSET -8.77824 4.35084 1.2192
    CHANNELS 3 Zrotation Xrotation Yrotation
    JOINT rThigh
    {
      OFFSET 0 -1.70687 -2.19456
      CHANNELS 3 Zrotation Xrotation Yrotation
      JOINT rShin
      {
        OFFSET 0 -36.8199 0.73152
        CHANNELS 3 Zrotation Xrotation Yrotation
        JOINT rFoot
        {
          OFFSET 0.73152 -45.1104 -5.12064
          CHANNELS 3 Zrotation Xrotation Yrotation
          End Site
          {
            OFFSET -1.1221 -3.69964 12.103
          }
        }
      }
    }
  }
  JOINT lButtock
  {
    OFFSET 8.77824 4.35084 1.2192
    CHANNELS 3 Zrotation Xrotation Yrotation
    JOINT lThigh
    {
      OFFSET 0 -1.70687 -2.19456
      CHANNELS 3 Zrotation Xrotation Yrotation
      JOINT lShin
      {
        OFFSET 0 -36.8199 0.73152
        CHANNELS 3 Zrotation Xrotation Yrotation
        JOINT lFoot
        {
          OFFSET -0.73152 -45.1104 -5.12064
          CHANNELS 3 Zrotation Xrotation Yrotation
          End Site
          {
            OFFSET 1.1221 -3.69964 12.103
          }
        }
      }
    }
  }
}
MOTION
Frames:	4
Frame Time:	0.00833333
59.4778 84.8839 -52.0869 0.147524 -0.000239381 -0.00252448 -0.194079 -0.000752044 -0.00553948 -0.0535369 -0.00112971 -0.00927457 -5.47345e-015 0 1.11816e-016 -1.64339e-014 3.18055e-015 3.37002e-016 -0 0 0 -0 0 0 -2.63529e-015 3.68839e-018 2.48481e-016 -5.65065e-014 3.60297e-016 1.78906e-015 -9.87612e-013 3.00761e-013 1.90833e-014 -1.13446e-011 -2.78771e-013 2.13097e-013 -2.67566e-011 4.00046e-014 5.24792e-013 -4.62254e-011 6.67917e-014 9.07253e-013 -2.67544e-011 3.85642e-014 5.1843e-013 7.73091 5.47488 0.417314 -2.67564e-011 3.98563e-014 5.27972e-013 2.90554 0.965183 0.102902 -2.6752e-011 4.02539e-014 5.28767e-013 10.2786 0.731801 0.0259123 -2.67642e-011 4.29375e-014 5.37514e-013 2.22167 -0.733487 -0.20892 -2.83147e-015 3.88251e-018 -1.49089e-016 -5.92237e-014 1.73937e-016 1.98785e-016 -9.93874e-013 -2.90822e-013 2.8625e-014 -1.13416e-011 3.16515e-013 2.25819e-013 -2.67569e-011 5.3824e-014 5.27972e-013 -4.62043e-011 9.22361e-014 9.14409e-013 -2.67596e-011 5.4467e-014 5.37514e-013 -7.73091 5.47488 -0.417314 -2.67558e-011 5.38706e-014 5.27972e-013 -2.90554 0.965183 -0.102902 -2.67666e-011 5.40694e-014 5.27972e-013 -10.2786 0.731801 -0.0259123 -2.67544e-011 5.48646e-014 5.1843e-013 -2.22167 -0.733487 0.20892 -2.03217e-016 0 -3.88251e-019 0.355885 -2.82713 -0.0340702 -0.00665529 -0.431858 -0.0584493 -0.502577 3.25829 0.123804 2.03217e-016 0 3.88251e-019 -0.65133 -3.58304 0.0525562 0.00445979 0.937462 0.0381184 0.504937 2.64491 -0.111588 
55.0506 83.5577 -53.3239 -0.452946 -0.251973 -13.0512 0.232662 3.25757 0.419705 -0.0681445 -1.50705 0.118188 -3.60671 -1.30818 -1.53842 3.6198 2.25427 -2.06472 -0 0 0 -0 0 0 -4.41496e-014 -3.24117e-014 5.24834e-013 22.3294 5.53407 0.0292511 -4.07925 -1.82632 6.4007 0.0112754 2.35796 0.33038 -2.13729e-009 3.45318e-009 1.04884e-009 -3.68598e-009 5.97893e-009 1.83277e-009 -2.13728e-009 3.45318e-009 1.04884e-009 7.73091 5.47488 0.417314 -2.13729e-009 3.45319e-009 1.04885e-009 2.90554 0.965183 0.102902 -2.13728e-009 3.45319e-009 1.04885e-009 10.2786 0.731801 0.0259123 -2.1373e-009 3.45319e-009 1.04886e-009 2.22167 -0.733487 -0.20892 -4.43381e-014 -3.24116e-014 5.24492e-013 -20.958 7.34061 -1.18453 4.195 -1.90114 -6.55759 -0.00463224 1.51499 -0.212652 -2.07332e-009 3.10728e-009 8.03546e-010 -3.57997e-009 5.39697e-009 1.40253e-009 -2.07332e-009 3.10728e-009 8.03553e-010 -7.73091 5.47488 -0.417314 -2.07331e-009 3.10728e-009 8.03543e-010 -2.90554 0.965183 -0.102902 -2.07332e-009 3.10728e-009 8.03544e-010 -10.2786 0.731801 -0.0259123 -2.07331e-009 3.10728e-009 8.03536e-010 -2.22167 -0.733487 0.20892 -2.03217e-016 0 -3.88251e-019 2.02982 -4.66625 -0.607427 0.0219604 9.4571 0.113218 -0.790692 -2.787 -2.07525 2.03217e-016 0 3.88251e-019 0.422034 -6.35759 -0.818999 -0.00739181 11.4722 -0.122628 0.632488 -1.8158 0.969862 
54.9244 83.5422 -53.4541 -1.19169 -0.484811 -26.8458 0.611767 6.69039 0.867511 -0.0727396 -3.09518 0.250666 -7.49831 -2.69302 -3.1724 7.6281 4.61234 -4.264 -0 0 0 -0 0 0 -8.86041e-014 -6.56968e-014 1.09702e-012 45.9314 11.4036 0.0616796 -7.95825 -3.68606 13.1995 -0.00645237 4.83862 0.679851 -4.44143e-009 7.21985e-009 2.18227e-009 -7.65973e-009 1.25006e-008 3.81355e-009 -4.44142e-009 7.21985e-009 2.18227e-009 7.73091 5.47488 0.417314 -4.44143e-009 7.21986e-009 2.18228e-009 2.90554 0.965183 0.102902 -4.44142e-009 7.21986e-009 2.18228e-009 10.2786 0.731801 0.0259123 -4.44143e-009 7.21986e-009 2.18229e-009 2.22167 -0.733487 -0.20892 -8.8786e-014 -6.56968e-014 1.09674e-012 -42.7664 15.1349 -2.51433 8.15663 -3.82559 -13.5079 0.00276134 3.13094 -0.439983 -4.30681e-009 6.49737e-009 1.68181e-009 -7.43644e-009 1.12852e-008 2.93548e-009 -4.30681e-009 6.49737e-009 1.68181e-009 -7.73091 5.47488 -0.417314 -4.30681e-009 6.49737e-009 1.6818e-009 -2.90554 0.965183 -0.102902 -4.30682e-009 6.49737e-009 1.68181e-009 -10.2786 0.731801 -0.0259123 -4.3068e-009 6.49737e-009 1.6818e-009 -2.22167 -0.733487 0.20892 -2.03217e-016 0 -3.88251e-019 3.74037 -6.62331 -1.21567 -0.015681 19.9262 0.310303 -1.607 -9.15926 -4.4583 2.03217e-016 0 3.88251e-019 1.44597 -9.24853 -1.75189 0.0484724 22.5428 -0.310693 0.955935 -6.56541 2.1424 
54.8102 83.5338 -53.5346 -1.96826 -0.601393 -39.1507 0.939245 9.77206 1.28683 -0.0772067 -4.51882 0.374152 -11.0311 -3.9132 -4.62486 11.3486 6.72755 -6.23245 -0 0 0 -0 0 0 -1.27178e-013 -9.72424e-014 1.57401e-012 66.9706 16.6022 0.0911439 -11.0348 -5.20599 19.2749 -0.0482812 7.07294 0.997896 -6.35835e-009 1.03595e-008 3.14548e-009 -1.09655e-008 1.79367e-008 5.4965e-009 -6.35834e-009 1.03595e-008 3.14548e-009 7.73091 5.47488 0.417314 -6.35836e-009 1.03595e-008 3.14548e-009 2.90554 0.965183 0.102902 -6.35835e-009 1.03595e-008 3.14549e-009 10.2786 0.731801 0.0259123 -6.35836e-009 1.03595e-008 3.1455e-009 2.22167 -0.733487 -0.20892 -1.27351e-013 -9.72426e-014 1.57377e-012 -61.9036 21.9826 -3.80117 11.3031 -5.40519 -19.7534 0.0199302 4.54472 -0.639745 -6.16643e-009 9.32174e-009 2.40958e-009 -1.06475e-008 1.61907e-008 4.20577e-009 -6.16643e-009 9.32174e-009 2.40958e-009 -7.73091 5.47488 -0.417314 -6.16643e-009 9.32174e-009 2.40957e-009 -2.90554 0.965183 -0.102902 -6.16644e-009 9.32174e-009 2.40958e-009 -10.2786 0.731801 -0.0259123 -6.16642e-009 9.32174e-009 2.40957e-009 -2.22167 -0.733487 0.20892 -2.03217e-016 0 -3.88251e-019 5.26618 -8.34137 -1.76688 -0.118817 29.2341 0.517898 -2.7923 -14.7862 -6.68802 2.03217e-016 0 3.88251e-019 2.31052 -11.8967 -2.60273 0.173179 32.5407 -0.518099 1.39914 -10.7218 3.18675 
